<svg 
          width="17.77837371826172" 
          height="21.787221908569336" fill="none" 
          xmlns="http://www.w3.org/2000/svg">
          <path d="M 0 2.1787222947464833 C 0 0.9754480738819546 0.9949555390288083 0 2.222296714782715 0 L 15.556077003479004 0 C 16.78341645726323 0 17.77837371826172 0.9754465155387051 17.77837371826172 2.1787217752987336 L 17.77837371826172 20.697856865337968 C 17.77837371826172 21.105918395350546 17.545757337599298 21.479760785389107 17.175666315280523 21.666481473576916 C 16.80557529296175 21.853202161764724 16.360077893697508 21.821486759945344 16.021383941959357 21.584306917329883 L 8.88918685913086 16.58977212930069 L 1.756990306139187 21.584306917329883 C 1.4182962881714332 21.821486759945344 0.9727987233331845 21.853202161764724 0.6027073367515925 21.666481473576916 C 0.23261598328480204 21.479760785389107 0 21.105918395350546 0 20.697856865337968 L 0 2.1787222947464833 Z M 15.556077003479004 2.1787217752987336 L 2.222296714782715 2.1787222947464833 L 2.222296714782715 18.581022094965224 L 8.24334491038303 14.36460341399472 C 8.629688677311151 14.094054247924117 9.148684511113743 14.094054247924117 9.535028278041864 14.36460341399472 L 15.556077003479004 18.581022094965224 L 15.556077003479004 2.1787217752987336 Z" fill="rgb(255,255,255)"/>
        </svg>