<svg 
          width="19.608501434326172" 
          height="21.787221908569336" fill="none" 
          xmlns="http://www.w3.org/2000/svg">
          <path d="M 9.804250717163086 2.1787221908569334 C 7.397700566845742 2.1787221908569334 5.446805953979492 4.129616373209433 5.446805953979492 6.5361665725708 C 5.446805953979492 8.942716512208243 7.397700566845742 10.893610954284668 9.804250717163086 10.893610954284668 C 12.21080086748043 10.893610954284668 14.16169548034668 8.942716512208243 14.16169548034668 6.5361665725708 C 14.16169548034668 4.129616373209433 12.21080086748043 2.1787221908569334 9.804250717163086 2.1787221908569334 Z M 3.2680835723876953 6.5361665725708 C 3.2680835723876953 2.926341403390711 6.194424972239176 0 9.804250717163086 0 C 13.414075942639101 0 16.340417861938477 2.926341403390711 16.340417861938477 6.5361665725708 C 16.340417861938477 10.145991482026965 13.414075942639101 13.0723331451416 9.804250717163086 13.0723331451416 C 6.194424972239176 13.0723331451416 3.2680835723876953 10.145991482026965 3.2680835723876953 6.5361665725708 Z M 5.446806473427387 17.429777526855467 C 3.641893081517537 17.429777526855467 2.178722381591797 18.892947838964936 2.178722381591797 20.69785873534947 C 2.178722381591797 21.299495700810983 1.6909987933062212 21.78721983077794 1.0893611907958984 21.78721983077794 C 0.4877235882855757 21.78721983077794 0 21.299495700810983 0 20.69785873534947 C 0 17.689670791354818 2.438619564702549 15.251055335998533 5.446806473427387 15.251055335998533 L 14.16169548034668 15.251055335998533 C 17.169883687691254 15.251055335998533 19.608501434326172 17.689672869146214 19.608501434326172 20.697860813140867 C 19.608501434326172 21.29949777860238 19.120777261661715 21.787221908569336 18.519140243530273 21.787221908569336 C 17.917502186503043 21.787221908569336 17.429779052734375 21.29949777860238 17.429779052734375 20.697860813140867 C 17.429779052734375 18.892947838964936 15.966607573636793 17.429777526855467 14.16169548034668 17.429777526855467 L 5.446806473427387 17.429777526855467 Z" fill="rgb(255,255,255)"/>
        </svg>