<svg 
          width="18.194766998291016" 
          height="18.19477081298828" fill="none" 
          xmlns="http://www.w3.org/2000/svg">
          <path d="M 6.429591032108789 0.29608966419191834 C 6.7380135287934095 0.6045119191789488 6.813816076760699 1.0759843251571322 6.617612854326659 1.4655392205169988 C 6.106031932832638 2.481268803278184 5.817477793536422 3.6292135053222014 5.817477793536422 4.847471423153757 C 5.817477793536422 9.006077047201371 9.188693786629416 12.377293032647511 13.347299420109902 12.377293032647511 C 14.565555894716784 12.377293032647511 15.713499755871647 12.088739376001822 16.729229220437787 11.57715845566821 C 17.118784176930774 11.380956197671223 17.59025531873887 11.456758745466571 17.898678779415505 11.765181241451604 C 18.207100312108114 12.073602773444625 18.2829028600754 12.545074878175306 18.08669963764136 12.934629833784674 C 16.516390387831663 16.052438347315274 13.285013968151938 18.19477081298828 9.551459405075107 18.19477081298828 C 4.2763341220866 18.19477081298828 0 13.918436700601593 0 8.643311429578533 C 0 4.90975856195646 2.142335844504456 1.6783784819180365 5.260141955127079 0.1080677896822212 C 5.649696429624058 -0.0881349503107706 6.121169017420175 -0.012332530545611342 6.429591032108789 0.29608966419191834 Z M 3.8630432722481833 3.7093210004408075 C 2.7154374107929544 5.031282527840961 2.0216377785016273 6.756645551098917 2.0216377785016273 8.643311429578533 C 2.0216377785016273 12.801918017618158 5.392853771594622 16.173133039072287 9.551459405075107 16.173133039072287 C 11.438127697814238 16.173133039072287 13.163491206981801 15.479334492845704 14.48545201438652 14.331727067506545 C 14.112097907667657 14.376107331710353 13.732272522564068 14.398930806563504 13.347299420109902 14.398930806563504 C 8.072174137121394 14.398930806563504 3.7958402560327973 10.122597658168829 3.7958402560327973 4.847471423153757 C 3.7958402560327973 4.462499044566824 3.8186630079437087 4.082674865314798 3.8630432722481833 3.7093210004408075 Z" fill="rgb(255,255,255)"/>
        </svg>