<svg 
          width="21.968036651611328" 
          height="16.132213592529297" fill="none" 
          xmlns="http://www.w3.org/2000/svg">
          <path d="M 15.099562719061272 12.248533407743484 C 16.935947717551574 12.248533407743484 18.472054965575815 10.619754517104358 18.66362829455545 8.506016894003091 C 18.690009366686912 8.214930427549774 18.690009366686912 7.917284874410506 18.66362829455545 7.626197838146862 C 18.472054965575815 5.512459645235266 16.935947717551574 3.883681039501306 15.099563700280946 3.883681039501306 C 13.263178701790645 3.883680754596142 11.727072434986075 5.51245850561461 11.535499106006439 7.626196698526206 C 11.509117052655304 7.917283734789851 11.509117052655304 8.214929857739445 11.535499106006439 8.506016324192762 C 11.727071453766403 10.619754517104358 13.263178701790643 12.248533407743484 15.099562719061272 12.248533407743484 ZM 15.023073701882673 16.132213592529297 L 6.944961477899146 16.132213592529297 C 3.52752937035578 16.13221245290864 0.6179767189340721 13.244664426998447 0.08498628755845974 9.324116944178783 C -0.028328823845716153 8.490605803871201 -0.028328762519486572 7.641605509416785 0.08498647920292715 6.808094369109202 C 0.6179774011883761 2.8875468862895386 3.5275325593197175 0 6.944963440338492 0 L 15.023073701882673 0 C 18.440504828206365 0 21.35005861416332 2.887550305151507 21.88304929084385 6.808097218160842 C 21.996364463574256 7.6416077886580975 21.996364463574256 8.49060808311251 21.88304929084385 9.324118653609766 C 21.35005861416332 13.244665566619101 18.440504828206365 16.132214732149954 15.023073701882673 16.132213592529297 Z M 15.023073701882673 14.33974528895708 C 17.681076125120956 14.33974528895708 19.944061094794577 12.093874348889006 20.358610707172332 9.044561159523475 C 20.44674385821183 8.39627484368654 20.44674385821183 7.735941028084071 20.358610707172332 7.0876552820574625 C 19.944061094794577 4.038340098355784 17.681076125120956 1.7924690158351269 15.023073701882673 1.792468730929963 L 6.944963440338492 1.792467876214471 C 4.28696101710021 1.792467591309307 2.023974820901995 4.0383383889247995 1.6094250858717816 7.087652433005822 C 1.5212918121798276 7.735938748842758 1.5212918121798276 8.396272564445226 1.6094248405668632 9.044558880282162 C 2.0239742076396996 12.093873209268349 4.286960035880536 14.339744149336424 6.944961477899146 14.33974528895708 L 15.023073701882673 14.33974528895708 Z" fill="rgb(255,255,255)"/>
        </svg>