<svg 
          width="21.5" 
          height="15.94443130493164" fill="none" 
          xmlns="http://www.w3.org/2000/svg">
          <path d="M 0.37290889024734497 8.813655853271484 L 2.646190643310547 2.3774924278259277 C 2.6574957370758057 2.3454854488372803 2.6709606647491455 2.3142828941345215 2.686492681503296 2.28410005569458 C 3.0661697387695312 1.546280860900879 3.7479310035705566 0.9807775616645813 4.475192546844482 0.6044779419898987 C 5.2080397605896 0.22528809309005737 6.058941841125488 0 6.861111640930176 0 C 8.009374618530273 0 9.150945663452148 0.4608350992202759 10.008125305175781 1.191789150238037 C 10.282950401306152 1.4261449575424194 10.534708023071289 1.693981647491455 10.750000953674316 1.990006685256958 C 10.965293884277344 1.693981647491455 11.217049598693848 1.426145076751709 11.491875648498535 1.1917892694473267 C 12.349055290222168 0.46083521842956543 13.490625381469727 0 14.63888931274414 0 C 15.441059112548828 0 16.291961669921875 0.22528809309005737 17.024808883666992 0.6044779419898987 C 17.752071380615234 0.9807775020599365 18.4338321685791 1.5462806224822998 18.813508987426758 2.28410005569458 C 18.82904052734375 2.3142828941345215 18.842506408691406 2.3454856872558594 18.853811264038086 2.377492666244507 L 21.1270751953125 8.813604354858398 C 21.367626190185547 9.412010192871094 21.5 10.06554889678955 21.5 10.75 C 21.500003814697266 13.618799209594727 19.17437171936035 15.94443130493164 16.305559158325195 15.94443130493164 C 13.691448211669922 15.94443130493164 11.528348922729492 14.013421058654785 11.164861679077148 11.5 L 10.335142135620117 11.5 C 9.971654891967773 14.013421058654785 7.808555603027344 15.94443130493164 5.19444465637207 15.94443130493164 C 2.3264453411102295 15.94443130493164 0.0013217974546932965 13.6201171875 0.000003840853423753288 10.752426147460938 M 2.9317612648010254 6.072930335998535 L 4.041826248168945 2.930091381072998 C 4.243137359619141 2.566953659057617 4.635901927947998 2.2102222442626953 5.164514541625977 1.9367072582244873 C 5.707111835479736 1.655956506729126 6.323247909545898 1.5 6.861111640930176 1.5 C 7.6219801902771 1.5 8.424854278564453 1.8129937648773193 9.034835815429688 2.3331518173217773 C 9.643507957458496 2.8521924018859863 10 3.5218148231506348 10 4.206790447235107 L 10 8.774368286132812 C 9.222588539123535 6.885401725769043 7.363819122314453 5.5555419921875 5.19444465637207 5.5555419921875 C 4.383373260498047 5.5555419921875 3.6157190799713135 5.74143123626709 2.9317612648010254 6.072930335998535 Z M 8.813831329345703 10.005440711975098 C 8.863044738769531 10.245940208435059 8.88888931274414 10.494952201843262 8.88888931274414 10.75 C 8.88888168334961 12.790379524230957 7.234825611114502 14.44443130493164 5.19444465637207 14.44443130493164 C 3.1540591716766357 14.44443130493164 1.5 12.790371894836426 1.5 10.74998664855957 C 1.5 9.22558307647705 2.423264265060425 7.916816234588623 3.7411177158355713 7.352370738983154 C 3.768507480621338 7.340641498565674 3.796067476272583 7.329233646392822 3.8237924575805664 7.318151950836182 C 4.2477288246154785 7.148707389831543 4.710296154022217 7.055555820465088 5.19444465637207 7.055555820465088 C 6.469623565673828 7.055555820465088 7.593908309936523 7.701610088348389 8.25783920288086 8.684257507324219 C 8.523456573486328 9.077383995056152 8.71539306640625 9.524383544921875 8.813831329345703 10.005440711975098 Z M 11.5 8.774383544921875 C 11.694353103637695 8.302141189575195 11.956290245056152 7.864843845367432 12.273770332336426 7.474533557891846 C 13.22620964050293 6.30360221862793 14.678525924682617 5.555555820465088 16.305557250976562 5.555555820465088 C 16.328168869018555 5.555555820465088 16.350744247436523 5.555700302124023 16.373287200927734 5.555988311767578 C 16.856260299682617 5.562159061431885 17.323257446289062 5.634232997894287 17.76573944091797 5.763599872589111 C 18.043588638305664 5.844827651977539 18.311798095703125 5.948638916015625 18.568239212036133 6.0729289054870605 L 17.458173751831055 2.9300899505615234 C 17.25686264038086 2.566952705383301 16.864099502563477 2.210221767425537 16.335487365722656 1.9367073774337769 C 15.792889595031738 1.655956506729126 15.176753044128418 1.5 14.63888931274414 1.5 C 13.878020286560059 1.5 13.075146675109863 1.8129937648773193 12.465165138244629 2.3331515789031982 C 11.85649299621582 2.8521924018859863 11.5 3.5218145847320557 11.5 4.206790447235107 L 11.5 8.774383544921875 Z M 12.611114501953125 10.74998664855957 C 12.611114501953125 10.749983787536621 12.611114501953125 10.74998950958252 12.611114501953125 10.74998664855957 C 12.611114501953125 12.790371894836426 14.26517391204834 14.44443130493164 16.305559158325195 14.44443130493164 C 18.345205307006836 14.44443130493164 19.998809814453125 12.791555404663086 20.000003814697266 10.752202033996582 C 20.000003814697266 10.751468658447266 20 10.750734329223633 20 10.75 C 20 10.719293594360352 19.9996280670166 10.688680648803711 19.998886108398438 10.658166885375977 C 19.997989654541016 10.621320724487305 19.996557235717773 10.584616661071777 19.99459457397461 10.548064231872559 C 19.916183471679688 9.092255592346191 18.994945526123047 7.860456943511963 17.710193634033203 7.331932067871094 C 17.27703857421875 7.153764724731445 16.80267333984375 7.055555820465088 16.305557250976562 7.055555820465088 C 15.030316352844238 7.055555820465088 13.905983924865723 7.7016730308532715 13.2420654296875 8.684401512145996 C 12.843718528747559 9.274032592773438 12.611119270324707 9.984850883483887 12.611114501953125 10.74998664855957 ZM 0.37290889024734497 8.813655853271484 C 0.13237112760543823 9.412046432495117 0 10.065557479858398 0 10.74998664855957 C 0 10.749991416931152 0 10.749981880187988 0 10.74998664855957M 0.000003840853423753288 10.752426147460938 L 0.37290889024734497 8.813655853271484 L 0 10.74998664855957" fill="rgb(255,255,255)"/>
        </svg>