<svg 
          width="17.775856018066406" 
          height="16.936580657958984" fill="none" 
          xmlns="http://www.w3.org/2000/svg">
          <path d="M 8.887928009033203 1.6936580657958984 C 8.39706106313622 1.6936580657958984 7.999135208129883 2.072796314963409 7.999135208129883 2.540486896794073 C 7.999135208129883 3.973538386516384 6.180656022188396 4.691214960093703 5.117120446651643 3.677893517830671 C 4.770025606398667 3.34718653235941 4.207273137441473 3.3471864566469947 3.860177952843333 3.6778939216302207 C 3.5130826093166547 4.008601235188616 3.513083112590357 4.544783640436452 3.860177952843333 4.875490297820579 C 4.923753896228618 5.888850201990703 4.1704173711953905 7.621460488482444 2.6663784027099613 7.621460488482444 C 2.1755117216938746 7.621460488482444 1.7775856018066407 8.00059853575018 1.7775856018066407 8.468289521380393 C 1.7775856018066407 8.935980507010607 2.1755115627653367 9.315118554278342 2.6663781908052444 9.315118554278342 C 4.170535402122596 9.315118554278342 4.923592001025054 11.047828074509379 3.8601211623792553 12.061087129742008 C 3.5130258188525776 12.391794443300403 3.5130258188525776 12.927976924260657 3.8601211623792553 13.258685524930115 C 4.207216002632231 13.589391551377446 4.769968736470321 13.589391551377446 5.117063232378132 13.258685524930115 C 6.180579100776231 12.245382556496475 7.999135208129883 12.962972111270869 7.999135208129883 14.396093559265136 C 7.999135208129883 14.863785201069618 8.39706106313622 15.242922592163085 8.887928009033203 15.242922592163085 C 9.378794954930186 15.242922592163085 9.776720809936524 14.863785201069618 9.776720809936524 14.396093559265136 C 9.776720809936524 12.963021172916136 11.595226166110525 12.245333595801094 12.65877837616754 13.258670180547233 C 13.00587356076568 13.589378781216691 13.56862433448514 13.589378781216691 13.91572086997585 13.258670180547233 C 14.262814703681421 12.927964154099902 14.262814703681421 12.391780234603754 13.91572086997585 12.061074208156423 C 12.852215490861228 11.047781536611296 13.605369142123937 9.315119361877441 15.109477615356447 9.315119361877441 C 15.6003438725631 9.315119361877441 15.998270416259766 8.935980658435437 15.998270416259766 8.468290328979492 C 15.998270416259766 8.000599343349279 15.600345249943759 7.621461296081542 15.109477615356447 7.621461296081542 C 13.605496602811037 7.621461296081542 12.85205698613313 5.888893004742954 13.915664079511771 4.8755044308048126 C 14.262759264109912 4.544797445333551 14.262759264109912 4.008615443885264 13.915664079511771 3.6779084584140036 C 13.5685702458062 3.347201472942743 13.005815419409032 3.3472008167684746 12.65872158570346 3.6779076508149044 C 11.595156555411085 4.691256854296967 9.776720809936524 3.9734854887753954 9.776720809936524 2.5404870986938475 C 9.776720809936524 2.0727963654383528 9.378794954930186 1.6936580657958984 8.887928009033203 1.6936580657958984 Z M 6.228802680966692 2.3516678046360995 C 6.3301951875398315 1.0367735144004657 7.481985985100619 3.7180297596739636e-17 8.887928009033203 0 C 10.293870774632296 -3.718031721019527e-17 11.445661843696001 1.036774523899339 11.547053337099715 2.351669621734072 C 12.594592331524609 1.4902217327945662 14.178462163935091 1.5331024183579074 15.172606573320081 2.480311072724771 C 16.166761789845623 3.427526490734089 16.21175986239073 4.936629890464724 15.307600049288887 5.934710625379921 C 16.687679526356806 6.031290758081203 17.775856018066406 7.1287114694313685 17.775856018066406 8.468290328979492 C 17.775856018066406 9.807851118497775 16.68770696801762 10.905260504532448 15.307655992134096 11.001866802182667 C 16.21181442785528 11.999947537097864 16.16681805054791 13.509052249177033 15.172664211403026 14.45626776813624 C 14.178500836545892 15.403493684933846 12.594596357714227 15.446357108066445 11.547056727575182 14.584863387878068 C 11.44568896749974 15.899782007036562 10.293887727009633 16.936580657958984 8.887928009033203 16.936580657958984 C 7.481969668437432 16.936580657958984 6.330168487545527 15.899784026034308 6.228799714300658 14.584866618274463 C 5.1812604020186885 15.446373260048425 3.597346387474772 15.403509534066165 2.603178456666228 14.456282304920023 C 1.6090186841892773 13.509061536566673 1.5640253795002992 11.99994733519809 2.468199602122877 11.001865994583568 C 1.0881482024299203 10.90525969693335 3.9022674281846025e-17 9.80784899855014 0 8.468289521380393 C -3.9023221264823094e-17 7.128711267531594 1.0881776571855426 6.031290594037636 2.468254697349221 5.9347098177808215 C 1.5640823818690934 4.9366290828656245 1.6090761103675049 3.4275169004947883 2.603235035225589 2.480296535940988 C 3.5973860136567963 1.5330838435786291 5.181263050827647 1.4902074988604457 6.228802680966692 2.3516678046360995 ZM 8.887928009033203 6.774632263183594 C 8.416482607208035 6.774632263183594 7.964346281026292 6.953070476522225 7.630984667606026 7.2706927413904845 C 7.2976229482334025 7.588314905308857 7.110342407226563 8.019103911981029 7.110342407226563 8.468290328979492 C 7.110342407226563 8.917476745977956 7.2976229482334025 9.34826565170024 7.630984667606026 9.665887916568499 C 7.964346281026292 9.983510181436758 8.416482607208035 10.16194839477539 8.887928009033203 10.16194839477539 C 9.359373410858371 10.16194839477539 9.811509631087757 9.983510181436758 10.144871350460381 9.665887916568499 C 10.478233069833005 9.34826565170024 10.665513610839845 8.917476745977956 10.665513610839845 8.468290328979492 C 10.665513610839845 8.019103911981029 10.478233069833005 7.588314905308857 10.144871350460381 7.2706927413904845 C 9.811509631087757 6.953070476522225 9.359373410858371 6.774632263183594 8.887928009033203 6.774632263183594 Z M 6.374042173797716 6.073095961400576 C 7.040766407185652 5.437850674539901 7.945038370858811 5.080974197387695 8.887928009033203 5.080974197387695 C 9.830817541255238 5.080974197387695 10.73508998171401 5.437850674539901 11.401813844268691 6.073095961400576 C 12.068538130632806 6.708341248261251 12.443099212646485 7.569918605431326 12.443099212646485 8.468290328979492 C 12.443099212646485 9.366661951577772 12.068538130632806 10.228239763022339 11.401813844268691 10.863484696558407 C 10.73508998171401 11.498730033894025 9.830817541255238 11.85560646057129 8.887928009033203 11.85560646057129 C 7.945038370858811 11.85560646057129 7.040766407185652 11.498730033894025 6.374042173797716 10.863484696558407 C 5.70731794040978 10.228239763022339 5.332756805419923 9.366661951577772 5.332756805419923 8.468290328979492 C 5.332756805419923 7.569918605431326 5.70731794040978 6.708341248261251 6.374042173797716 6.073095961400576 Z" fill="rgb(255,255,255)"/>
        </svg>