<svg 
          width="17.780303955078125" 
          height="18.222265243530273" fill="none" 
          xmlns="http://www.w3.org/2000/svg">
          <path d="M 7.058920388910639 1.1371787481135698 C 7.352454006931655 0.47027881972172736 8.061761485023531 0 8.890151977539062 0 C 9.718542941071695 0 10.427849477129369 0.47027881972172736 10.721383566167486 1.1371787481135698 C 13.651489572491133 1.8775464675217108 15.804713161349577 4.351289494686512 15.804713161349577 7.288906097412109 L 15.804713161349577 11.568609741386808 L 17.614402311859013 14.072417761441557 C 17.816476184345785 14.351998474202901 17.83531498430658 14.71147416200074 17.66342011949778 15.007729167804428 C 17.491525254688977 15.303984173608114 17.156801662226226 15.488925457000732 16.79250761617965 15.488925457000732 L 12.312420926312859 15.488925457000732 C 12.072767425461446 17.03430832034246 10.631866766173754 18.222265243530273 8.890151977539062 18.222265243530273 C 7.148437188904372 18.222265243530273 5.707536058599579 17.03430832034246 5.467882557748166 15.488925457000732 L 0.9877959856356507 15.488925457000732 C 0.6235019984662094 15.488925457000732 0.28877769947780707 15.303984173608114 0.1168827169147311 15.007729167804428 C -0.05501232452548252 14.71147416200074 -0.03617258253048489 14.351998474202901 0.16590128995628706 14.072417761441557 L 1.9755905582199993 11.568609741386808 L 1.9755905582199993 7.288906097412109 C 1.9755905582199993 4.351289711912841 4.128814618095543 1.8775465218282932 7.058920388910639 1.1371787481135698 Z M 7.4927709432733165 15.488925457000732 C 7.696175910086751 16.01973623982485 8.245013985182235 16.400038719177246 8.890151977539062 16.400038719177246 C 9.53528996989589 16.400038719177246 10.084127573974273 16.01973623982485 10.287532540787709 15.488925457000732 L 7.4927709432733165 15.488925457000732 Z M 8.890151977539062 2.733339786529541 C 6.162432599057071 2.733339786529541 3.9511792323715955 4.7729360096286655 3.9511792323715955 7.288906097412109 L 3.9511792323715955 11.844472408294678 C 3.9511792323715955 12.024348842591735 3.8934546736258344 12.200200507458248 3.785279708729436 12.34986684167734 L 2.8335067576947885 13.666698932647705 L 14.946796961874787 13.666698932647705 L 13.995024010840138 12.34986684167734 C 13.88684928145229 12.200200507458248 13.82912425168943 12.024348842591735 13.82912425168943 11.844472408294678 L 13.82912425168943 7.288906097412109 C 13.82912425168943 4.7729360096286655 11.617871356021054 2.733339786529541 8.890151977539062 2.733339786529541 Z" fill="rgb(255,255,255)"/>
        </svg>